<?xml version="1.0" encoding="UTF-8"?>
<!-- Created with Inkscape (http://www.inkscape.org/) -->
<svg version="1.1" viewBox="0 0 32 32" xml:space="preserve" xmlns="http://www.w3.org/2000/svg"><rect y="2.609e-15" width="32" height="32" rx="3.4451" fill="#1a1a1a" stroke-width="0" style="paint-order:fill markers stroke"/><g transform="matrix(1.3023 0 0 1.3023 .19771 .24769)" fill="none" stroke="#fff" stroke-linecap="round" stroke-linejoin="round" stroke-width="2"><path d="m18 8a2 2 0 0 0 0-4 2 2 0 0 0-4 0 2 2 0 0 0-4 0 2 2 0 0 0-4 0 2 2 0 0 0 0 4"/><path d="m10 22-1-14"/><path d="m14 22 1-14"/><path d="m20 8c0.5 0 0.9 0.4 0.8 1l-2.6 12c-0.1 0.5-0.7 1-1.2 1h-10c-0.6 0-1.1-0.4-1.2-1l-2.6-12c-0.1-0.6 0.3-1 0.8-1z"/></g></svg>
